<?xml version="1.0" encoding="UTF-8"?>
<svg version="1.1" xmlns="http://www.w3.org/2000/svg" width="512" height="512">
<path d="M0 0 C24.20404557 19.07962048 39.78205661 44.16704633 52.125 72.0625 C52.81795166 71.99321289 53.51090332 71.92392578 54.22485352 71.85253906 C74.74811697 69.9540823 95.8821074 69.89629811 116.125 74.0625 C116.80900879 74.20171875 117.49301758 74.3409375 118.19775391 74.484375 C141.30195185 79.41205385 162.10008254 91.01859924 175.125 111.0625 C187.25769661 133.19148359 187.5615165 157.31542217 180.71875 181.09765625 C174.82122785 200.41631811 165.4277156 217.42571195 154.125 234.0625 C152.78841686 236.06035143 151.45691449 238.06153079 150.125 240.0625 C151.61514483 243.36928208 153.5799812 246.28801174 155.6027832 249.28930664 C175.79373297 279.4293178 191.30698946 314.1345594 184.125 351.0625 C179.50497993 370.0288982 167.54622222 384.82069241 151.125 395.0625 C129.5139122 407.01178393 106.26534601 411.26951909 81.78515625 411.19287109 C79.76033987 411.18752729 77.73574704 411.19283908 75.7109375 411.19921875 C67.79716669 411.19146015 59.99779291 410.8755219 52.125 410.0625 C51.87967529 410.60438965 51.63435059 411.1462793 51.3815918 411.70458984 C35.79752591 445.88086733 14.27668596 479.95709582 -22.33984375 493.90625 C-41.50348896 500.17413838 -60.88834175 498.34023157 -79 489.875 C-110.63675251 473.14267312 -129.81659927 441.83494308 -143.875 410.0625 C-144.56795166 410.13178711 -145.26090332 410.20107422 -145.97485352 410.27246094 C-182.02214327 413.60693165 -220.8985593 411.5917665 -250.875 389.0625 C-251.46152344 388.6396875 -252.04804688 388.216875 -252.65234375 387.78125 C-265.74427018 377.56895365 -274.02787744 360.51443109 -276.43359375 344.296875 C-280.41037423 310.00064052 -266.53895854 278.08319107 -247.875 250.0625 C-247.22789062 249.07765625 -246.58078125 248.0928125 -245.9140625 247.078125 C-244.58119535 245.06318029 -243.23799354 243.05712469 -241.875 241.0625 C-242.80119141 239.71671875 -242.80119141 239.71671875 -243.74609375 238.34375 C-249.98852269 229.18313764 -255.63052 219.82610654 -260.875 210.0625 C-261.5040625 208.91136719 -262.133125 207.76023438 -262.78125 206.57421875 C-275.78170554 181.85624736 -282.52490913 152.02334513 -274.125 124.75 C-266.72808097 104.81866544 -252.07729496 90.80313646 -233.01953125 81.8828125 C-214.3782254 73.51572905 -194.87037478 70.86843915 -174.59008789 70.93212891 C-172.57625708 70.93746356 -170.56265198 70.93216577 -168.54882812 70.92578125 C-160.27797432 70.93390985 -152.11007059 71.29240819 -143.875 72.0625 C-143.62967529 71.52061035 -143.38435059 70.9787207 -143.1315918 70.42041016 C-127.54752591 36.24413267 -106.02668596 2.16790418 -69.41015625 -11.78125 C-45.08789159 -19.73637745 -20.69403888 -14.65361672 0 0 Z M-65.875 11.0625 C-66.78636719 11.46339844 -67.69773438 11.86429688 -68.63671875 12.27734375 C-76.62912785 16.21084038 -82.57348774 21.90626756 -88.875 28.0625 C-89.52210938 28.64773437 -90.16921875 29.23296875 -90.8359375 29.8359375 C-99.29103298 37.65590844 -105.42006328 48.04181827 -111.25 57.875 C-111.85678589 58.8956958 -111.85678589 58.8956958 -112.47583008 59.93701172 C-117.60500697 68.05596707 -117.60500697 68.05596707 -119.875 77.0625 C-119.23925049 77.19712646 -118.60350098 77.33175293 -117.94848633 77.47045898 C-104.77941636 80.29566956 -91.80510011 83.50932919 -78.9375 87.5 C-77.7098291 87.87423096 -76.4821582 88.24846191 -75.21728516 88.6340332 C-69.86080447 90.30896877 -64.70474004 92.03118004 -59.6640625 94.51171875 C-52.89604396 97.78549856 -47.8129833 99.94960653 -40.33203125 97.76953125 C-35.1392102 95.91953759 -30.13635643 93.66394593 -25.10644531 91.41552734 C-19.61847571 89.11767848 -13.95965452 87.46424759 -8.25 85.8125 C-7.13125488 85.4834668 -6.01250977 85.15443359 -4.85986328 84.81542969 C3.5410836 82.3956249 12.00727856 80.37029006 20.58837891 78.69628906 C21.86334229 78.43477051 21.86334229 78.43477051 23.1640625 78.16796875 C23.90865723 78.02512451 24.65325195 77.88228027 25.42041016 77.73510742 C25.9829248 77.51314697 26.54543945 77.29118652 27.125 77.0625 C28.39850723 74.25474539 28.39850723 74.25474539 27.49511719 72.23168945 C27.14094727 71.55323975 26.78677734 70.87479004 26.421875 70.17578125 C26.02427979 69.41015869 25.62668457 68.64453613 25.21704102 67.85571289 C24.77416748 67.03707764 24.33129395 66.21844238 23.875 65.375 C23.42116943 64.5286499 22.96733887 63.6822998 22.49975586 62.81030273 C15.22931308 49.51332406 6.69262071 37.8959728 -3.875 27.0625 C-4.48859375 26.38703125 -5.1021875 25.7115625 -5.734375 25.015625 C-14.53409348 15.54545178 -28.30401209 7.71996651 -41.34375 6.82421875 C-50.24761526 6.57827398 -57.61990295 7.3794567 -65.875 11.0625 Z M-240.875 114.0625 C-251.46362515 125.75234217 -255.80115597 139.01302604 -255.21484375 154.80078125 C-253.63187035 179.21011842 -241.29717941 202.77109603 -226.875 222.0625 C-221.96748134 218.04525084 -217.61918632 213.76667492 -213.375 209.0625 C-202.30843786 197.01793474 -190.32699372 185.61276618 -177.046875 176.01953125 C-176.14453125 175.35308594 -175.2421875 174.68664062 -174.3125 174 C-173.50683594 173.43152344 -172.70117188 172.86304688 -171.87109375 172.27734375 C-167.86066844 167.82741978 -167.49324148 160.28939549 -166.46484375 154.53125 C-162.71147799 133.99045116 -157.9162231 114.05278141 -151.875 94.0625 C-181.0219516 90.39344768 -218.52250509 92.26419918 -240.875 114.0625 Z M60.125 94.0625 C60.33592285 94.79960205 60.5468457 95.5367041 60.76416016 96.29614258 C64.62500223 109.85727182 68.36190765 123.42268741 71.4375 137.1875 C71.68741699 138.29891357 71.93733398 139.41032715 72.19482422 140.55541992 C73.47544007 146.44231923 74.43427785 152.25232487 75.0925293 158.23828125 C75.84281575 164.74379011 76.57228529 169.54790033 81.625 174.1875 C83.43099089 175.51712807 85.26539577 176.80895063 87.125 178.0625 C88.92995252 179.50435712 90.72149446 180.96314468 92.5 182.4375 C93.428125 183.19289063 94.35625 183.94828125 95.3125 184.7265625 C104.47560805 192.33703279 112.88313614 200.7229271 121.3125 209.125 C121.79023865 209.60005981 122.26797729 210.07511963 122.76019287 210.5645752 C124.12824534 211.92680216 125.49194391 213.29339736 126.85546875 214.66015625 C127.65364014 215.45945557 128.45181152 216.25875488 129.27416992 217.08227539 C131.125 219.0625 131.125 219.0625 132.125 221.0625 C135.52847247 219.92800918 135.86521978 219.37780048 137.7265625 216.4765625 C138.2124585 215.72028564 138.69835449 214.96400879 139.19897461 214.18481445 C139.71081299 213.36070068 140.22265137 212.53658691 140.75 211.6875 C141.28052979 210.83696045 141.81105957 209.9864209 142.35766602 209.11010742 C156.20017827 186.47935961 167.33209623 160.39338361 161.16796875 133.56640625 C157.01865651 119.62658198 148.07151791 110.70955533 135.703125 103.6875 C113.01861611 92.41569434 84.85435092 90.94954042 60.125 94.0625 Z M-128.875 97.0625 C-133.27928134 109.50989404 -137.32049617 121.97494297 -140.4375 134.8125 C-140.70062988 135.87654053 -140.96375977 136.94058105 -141.23486328 138.03686523 C-141.46802246 139.03016846 -141.70118164 140.02347168 -141.94140625 141.046875 C-142.14709229 141.92053711 -142.35277832 142.79419922 -142.56469727 143.69433594 C-142.88599474 146.14640947 -142.64620662 147.73303112 -141.875 150.0625 C-141.070625 149.50304687 -140.26625 148.94359375 -139.4375 148.3671875 C-122.77894697 136.94237473 -105.18357392 127.02685675 -87.18554688 117.88134766 C-86.28384766 117.42163574 -85.38214844 116.96192383 -84.453125 116.48828125 C-83.66325195 116.09036377 -82.87337891 115.69244629 -82.05957031 115.2824707 C-79.83558103 114.04048652 -77.87493119 112.63595014 -75.875 111.0625 C-93.12701028 105.24348284 -110.81489687 99.72203574 -128.875 97.0625 Z M-16.875 111.0625 C-13.8129786 113.50693265 -10.66854046 115.29854268 -7.17578125 117.06640625 C-6.05751953 117.63697754 -4.93925781 118.20754883 -3.78710938 118.79541016 C-3.19953857 119.0937677 -2.61196777 119.39212524 -2.0065918 119.69952393 C16.00792928 128.86454148 33.10186528 139.17603762 50.125 150.0625 C51.58357829 146.16833131 50.67004701 143.22402275 49.68359375 139.26953125 C49.52065323 138.60994919 49.35771271 137.95036713 49.18983459 137.27079773 C48.65807687 135.13601253 48.11125146 133.00547496 47.5625 130.875 C47.38025879 130.15473633 47.19801758 129.43447266 47.01025391 128.69238281 C44.28489029 117.93044387 41.23127783 107.39041091 37.125 97.0625 C19.60488911 97.0625 -0.39150038 105.68239752 -16.875 111.0625 Z M-144.16430664 178.86083984 C-145.71789604 179.95214383 -147.29529069 181.00936046 -148.875 182.0625 C-149.97719669 186.6337985 -150.18051309 191.38057053 -150.5625 196.0625 C-150.62503967 196.7932373 -150.68757935 197.52397461 -150.75201416 198.27685547 C-152.62778801 220.81749498 -152.45552581 243.46832202 -151.875 266.0625 C-151.85155518 266.97616333 -151.82811035 267.88982666 -151.80395508 268.83117676 C-151.66481883 273.73359058 -151.45731222 278.62454987 -151.13653564 283.51855469 C-151.04698015 284.94119392 -150.97188925 286.36483332 -150.91278076 287.7890625 C-150.5753708 295.68470066 -150.5753708 295.68470066 -146.91064453 302.44921875 C-144.3401819 304.56973551 -141.71216322 306.31696357 -138.875 308.0625 C-137.0316175 309.34575133 -135.19049905 310.63226056 -133.3515625 311.921875 C-131.40532028 313.2251622 -129.45464012 314.52184191 -127.5 315.8125 C-126.45199219 316.50641846 -125.40398437 317.20033691 -124.32421875 317.9152832 C-107.05056471 329.27794517 -89.21196165 339.51461316 -70.875 349.0625 C-69.8859668 349.57748047 -68.89693359 350.09246094 -67.87792969 350.62304688 C-65.03470939 352.08656603 -62.17807228 353.51832552 -59.3125 354.9375 C-58.46244385 355.37271973 -57.6123877 355.80793945 -56.73657227 356.25634766 C-51.65134607 358.71382348 -48.4846558 359.7602371 -42.875 358.0625 C-38.61993955 356.31740607 -34.4997859 354.34428067 -30.375 352.3125 C-29.48645325 351.87899734 -29.48645325 351.87899734 -28.57995605 351.43673706 C-16.38732176 345.48389869 -4.55438528 338.96559967 7.125 332.0625 C8.09985352 331.48854492 9.07470703 330.91458984 10.07910156 330.32324219 C22.20666467 323.15281555 34.04574481 315.71910346 45.36230469 307.31884766 C46.96146235 306.17906021 48.63838645 305.1503979 50.3203125 304.13671875 C54.7325589 301.30207042 56.74265485 299.4822157 58.1328125 294.3203125 C58.66992556 290.7747197 58.89910558 287.25166011 59.0168457 283.66992188 C59.14360333 280.61400439 59.39898217 277.57635155 59.640625 274.52734375 C60.3768109 263.59079488 60.32071302 252.64447487 60.3125 241.6875 C60.31308914 240.02439789 60.31308914 240.02439789 60.31369019 238.32769775 C60.30728501 223.26026752 60.27773143 208.20881557 58.36376953 193.23608398 C58.125 191.0625 58.125 191.0625 58.11669922 188.90649414 C58.03224326 185.90262998 57.66889735 183.66878846 55.63305664 181.39941406 C53.53818206 179.70332537 51.38439032 178.21976356 49.125 176.75 C47.90538574 175.91662109 47.90538574 175.91662109 46.66113281 175.06640625 C44.1654666 173.37233139 41.64810479 171.71534406 39.125 170.0625 C37.72332565 169.12203602 36.32224638 168.18068429 34.921875 167.23828125 C23.61291918 159.71080444 11.8803725 152.86282082 0.125 146.0625 C-1.01291992 145.39951904 -1.01291992 145.39951904 -2.17382812 144.72314453 C-12.01986324 139.0078916 -22.12828882 133.88877715 -32.375 128.9375 C-32.98233978 128.64311035 -33.58967957 128.3487207 -34.21542358 128.04541016 C-35.94328638 127.21015972 -37.67469806 126.38226289 -39.40625 125.5546875 C-40.41236328 125.07370605 -41.41847656 124.59272461 -42.45507812 124.09716797 C-63.63195101 115.04273019 -126.2249097 166.09326593 -144.16430664 178.86083984 Z M-176.7578125 204.78515625 C-177.49773437 205.55730469 -178.23765625 206.32945312 -179 207.125 C-181.83026103 210.0228628 -184.66249297 212.81567068 -187.75 215.4375 C-194.58059913 221.313724 -200.90059296 227.81206607 -207 234.4375 C-207.80824219 235.31535156 -207.80824219 235.31535156 -208.6328125 236.2109375 C-210.20431763 238.55336967 -210.61689207 240.25423327 -210.875 243.0625 C-209.78498047 245.06816556 -209.78498047 245.06816556 -207.96484375 246.77734375 C-207.31128906 247.45692139 -206.65773438 248.13649902 -205.984375 248.83666992 C-204.90929687 249.90751831 -204.90929687 249.90751831 -203.8125 251 C-203.08675781 251.74419189 -202.36101562 252.48838379 -201.61328125 253.25512695 C-200.11214893 254.78943979 -198.60408622 256.31700111 -197.08935547 257.83789062 C-195.03405504 259.90270843 -193.00031008 261.98620902 -190.97265625 264.078125 C-189.77458057 265.30320225 -188.57541866 266.52721848 -187.375 267.75 C-186.83738037 268.30099365 -186.29976074 268.8519873 -185.74584961 269.41967773 C-181.66252208 273.50927669 -177.61337225 276.50872081 -172.875 280.0625 C-172.875 254.6525 -172.875 229.2425 -172.875 203.0625 C-175.05439784 202.8374896 -175.05439784 202.8374896 -176.7578125 204.78515625 Z M81.125 204.0625 C81.125 228.4825 81.125 252.9025 81.125 278.0625 C88.0419079 272.883029 88.0419079 272.883029 94.25390625 267.1640625 C95.14400391 266.27203125 96.03410156 265.38 96.95117188 264.4609375 C97.85416016 263.54570312 98.75714844 262.63046875 99.6875 261.6875 C101.0477832 260.32625 101.0477832 260.32625 102.43554688 258.9375 C106.44519008 254.90168798 110.42298621 250.8332793 114.27734375 246.6484375 C115.11060181 245.74810791 115.11060181 245.74810791 115.96069336 244.82958984 C117.49179514 242.85850481 117.49179514 242.85850481 117.125 239.0625 C115.56155064 236.79317279 115.56155064 236.79317279 113.36328125 234.5625 C112.54037598 233.68464844 111.7174707 232.80679688 110.86962891 231.90234375 C109.96390137 230.96519531 109.05817383 230.02804688 108.125 229.0625 C107.66123962 228.58184082 107.19747925 228.10118164 106.71966553 227.60595703 C103.7861796 224.57412447 100.82239307 221.57410939 97.83911133 218.59130859 C96.29153444 217.04150427 94.75219308 215.48379936 93.21289062 213.92578125 C92.21923801 212.92920069 91.22511499 211.93308887 90.23046875 210.9375 C89.34512451 210.04804688 88.45978027 209.15859375 87.54760742 208.2421875 C85.05670608 205.80686632 85.05670608 205.80686632 81.125 204.0625 Z M-226.875 260.0625 C-243.72987029 280.93043464 -257.8335904 310.78467733 -255.875 338.0625 C-253.7062062 352.23650675 -248.31109294 363.71465174 -236.703125 372.44921875 C-217.57600357 385.64444287 -195.10071435 389.05407954 -172.3125 389.1875 C-171.54486328 389.19233398 -170.77722656 389.19716797 -169.98632812 389.20214844 C-163.90957851 389.18410889 -157.91743837 388.68686871 -151.875 388.0625 C-152.110979 387.28165039 -152.34695801 386.50080078 -152.59008789 385.69628906 C-158.71013718 365.23779621 -163.39443964 344.78538031 -167.14819336 323.76757812 C-168.65770405 314.57822782 -168.65770405 314.57822782 -174.625 307.8125 C-175.61628906 307.05710937 -176.60757813 306.30171875 -177.62890625 305.5234375 C-178.42385498 304.92740723 -178.42385498 304.92740723 -179.23486328 304.31933594 C-194.42750763 292.67722026 -208.367934 279.08242018 -221.26733398 264.98925781 C-221.85844971 264.3444043 -222.44956543 263.69955078 -223.05859375 263.03515625 C-223.57993896 262.46031494 -224.10128418 261.88547363 -224.63842773 261.29321289 C-225.70235751 259.94492908 -225.70235751 259.94492908 -226.875 260.0625 Z M131.7421875 261.3125 C128.67436568 264.39407887 125.70198079 267.50752729 122.875 270.8125 C115.91915784 278.86251958 108.2117125 286.16540306 100.125 293.0625 C98.92987623 294.10810381 97.73598538 295.15511762 96.54296875 296.203125 C95.2161877 297.36463116 93.88936433 298.52608898 92.5625 299.6875 C91.93698242 300.23841309 91.31146484 300.78932617 90.66699219 301.35693359 C90.0537207 301.89141113 89.44044922 302.42588867 88.80859375 302.9765625 C88.20257324 303.50540039 87.59655273 304.03423828 86.97216797 304.57910156 C85.15162785 306.04111607 83.28014317 307.19163817 81.28515625 308.3984375 C78.55569687 310.33279349 77.60334558 311.71005305 76.85546875 314.97265625 C76.59381937 316.66656529 76.35262606 318.36368435 76.125 320.0625 C75.71326605 322.3128331 75.29186332 324.56140855 74.86328125 326.80859375 C74.63487549 328.04569092 74.40646973 329.28278809 74.17114258 330.55737305 C71.43710329 345.29782246 68.02663259 359.70307388 63.93212891 374.13427734 C62.56720716 379.08614407 61.34385073 384.07298488 60.125 389.0625 C88.39176474 392.60656353 121.34584026 390.53879512 144.94140625 372.96484375 C154.7665893 364.66249086 160.1954703 354.06697195 162.875 341.5625 C164.86942384 313.64056622 152.98870819 288.98258783 138.125 266.0625 C137.76599609 265.50208008 137.40699219 264.94166016 137.03710938 264.36425781 C136.09392314 262.9120909 135.11261013 261.48482741 134.125 260.0625 C132.93796447 259.950736 132.93796447 259.950736 131.7421875 261.3125 Z M-142.875 332.0625 C-142.32295206 339.6016621 -140.58982821 346.6168877 -138.60131836 353.8996582 C-138.06691009 355.85883232 -137.54340099 357.82066883 -137.02148438 359.78320312 C-134.56050636 372.75676054 -134.56050636 372.75676054 -128.875 384.0625 C-120.96636916 384.03285587 -113.32854675 381.84412258 -105.75 379.8125 C-104.56817139 379.50111084 -103.38634277 379.18972168 -102.16870117 378.86889648 C-93.32093311 376.51283874 -84.5640816 373.9499896 -75.875 371.0625 C-78.85705757 368.68737112 -81.88572663 366.93727449 -85.29296875 365.234375 C-86.370625 364.68918213 -87.44828125 364.14398926 -88.55859375 363.58227539 C-89.71488281 362.99824951 -90.87117188 362.41422363 -92.0625 361.8125 C-109.59424244 352.87473143 -126.31019709 342.67811455 -142.875 332.0625 Z M43 336.1875 C24.0233374 349.09407553 3.63968574 359.83438033 -16.875 370.0625 C-16.875 370.7225 -16.875 371.3825 -16.875 372.0625 C0.62530885 377.77448212 18.09387503 382.3633706 36.125 386.0625 C38.03090125 383.20364812 38.88309634 381.06636468 39.89453125 377.8203125 C40.22388672 376.76344238 40.55324219 375.70657227 40.89257812 374.61767578 C41.23740234 373.48571777 41.58222656 372.35375977 41.9375 371.1875 C42.29134766 370.0310498 42.64519531 368.87459961 43.00976562 367.68310547 C45.25536418 360.23152227 47.31790492 352.75745303 49.125 345.1875 C49.33229736 344.32141113 49.53959473 343.45532227 49.75317383 342.56298828 C50.60037809 338.88203182 51.125 335.88184931 51.125 332.0625 C47.86950049 332.0625 45.59397637 334.37847025 43 336.1875 Z M-53.62890625 385.75 C-55.01311768 386.29781128 -55.01311768 386.29781128 -56.42529297 386.85668945 C-57.41932129 387.25460693 -58.41334961 387.65252441 -59.4375 388.0625 C-77.04066965 394.88104938 -95.2648017 400.28727201 -113.81201172 403.87231445 C-115.51222535 404.21124323 -117.19656523 404.62838499 -118.875 405.0625 C-119.205 405.7225 -119.535 406.3825 -119.875 407.0625 C-118.81053428 409.57658 -117.68705192 411.95409827 -116.4375 414.375 C-116.07060059 415.09341064 -115.70370117 415.81182129 -115.32568359 416.55200195 C-102.04620418 442.19973529 -84.36895267 465.41478572 -55.99609375 474.67578125 C-45.64856245 476.56234773 -35.42947595 475.32526619 -25.875 471.0625 C-24.96363281 470.66160156 -24.05226563 470.26070313 -23.11328125 469.84765625 C-15.12087215 465.91415962 -9.17651226 460.21873244 -2.875 454.0625 C-2.22789062 453.47726562 -1.58078125 452.89203125 -0.9140625 452.2890625 C9.74450211 442.43114124 17.19019075 428.65738224 24.125 416.0625 C24.52493164 415.34288086 24.92486328 414.62326172 25.33691406 413.88183594 C25.71299805 413.17575195 26.08908203 412.46966797 26.4765625 411.7421875 C26.81768066 411.10780762 27.15879883 410.47342773 27.51025391 409.81982422 C28.39715259 407.85938298 28.39715259 407.85938298 27.125 405.0625 C25.00544607 404.22489127 25.00544607 404.22489127 22.359375 403.7734375 C21.33827637 403.55880859 20.31717773 403.34417969 19.26513672 403.12304688 C18.1463916 402.89681641 17.02764648 402.67058594 15.875 402.4375 C-3.48384597 398.25151124 -22.55741322 392.54832912 -40.90625 385.05859375 C-45.66684057 383.46129034 -49.02840868 383.87704273 -53.62890625 385.75 Z " fill="#457387" transform="translate(301.875,14.9375)"/>
<path d="M0 0 C2.09123944 -0.00961489 4.18145501 -0.04065854 6.27246094 -0.07226562 C24.88443622 -0.21892149 44.29330977 3.56319709 58.24511719 16.77539062 C64.21590325 23.41944039 65.07079032 29.88942819 65.04394531 38.4230957 C65.05241486 39.4224263 65.0608844 40.4217569 65.0696106 41.45137024 C65.09293243 44.74179962 65.09400376 48.03175997 65.09277344 51.32226562 C65.09987859 53.62001226 65.10757811 55.91775713 65.11584473 58.21549988 C65.12927903 63.02791273 65.13086327 67.84016156 65.125 72.65258789 C65.11910922 78.80265889 65.14967564 84.95193903 65.19011688 91.10185719 C65.21603899 95.8469818 65.21886708 100.59191723 65.21522522 105.33710289 C65.21691265 107.60359367 65.22651864 109.87009355 65.24436951 112.13651466 C65.26664461 115.31460212 65.25681251 118.49110479 65.23925781 121.66918945 C65.25252106 122.59471619 65.2657843 123.52024292 65.27944946 124.47381592 C65.1786665 132.37459387 62.63947896 138.88000834 57.33496094 144.79101562 C36.58938798 160.43692433 9.83749691 162.60850203 -15.34375 159.92382812 C-29.53930515 157.71598791 -45.81586426 152.62751351 -55.13769531 141.05273438 C-57.87572849 136.78485458 -59.49226681 133.08239703 -59.52987671 127.9538269 C-59.53847717 127.07922318 -59.54707764 126.20461945 -59.55593872 125.30351257 C-59.56019867 124.34661026 -59.56445862 123.38970795 -59.56884766 122.40380859 C-59.57702515 121.39370224 -59.58520264 120.38359589 -59.59362793 119.34288025 C-59.61847821 115.99356681 -59.63499888 112.64429582 -59.64941406 109.29492188 C-59.65473774 108.1504874 -59.66006142 107.00605293 -59.66554642 105.82693863 C-59.69227895 99.76711954 -59.71165183 93.70732105 -59.72607422 87.64746094 C-59.74270408 81.39635781 -59.78746836 75.14578371 -59.83844566 68.89488029 C-59.87214964 64.08205581 -59.88365527 59.26935628 -59.8893013 54.45642471 C-59.8960071 52.15280245 -59.91121154 49.84918821 -59.93519211 47.545681 C-59.96690684 44.31436215 -59.96687013 41.08446179 -59.95947266 37.85302734 C-59.97587799 36.90827042 -59.99228333 35.96351349 -60.00918579 34.99012756 C-59.93871182 27.4371695 -57.67031694 21.84970783 -52.55745506 16.24775505 C-38.71238209 2.7913478 -18.40350675 0.05090873 0 0 Z " fill="#2EAACD" transform="translate(253.3759765625,175.759765625)"/>
<path d="M0 0 C1.64935547 0.39832031 1.64935547 0.39832031 3.33203125 0.8046875 C4.82548381 1.16161327 6.31897554 1.51837519 7.8125 1.875 C8.53115234 2.04902344 9.24980469 2.22304688 9.99023438 2.40234375 C20.13639317 4.81596743 29.85447671 6.41288728 40.3125 6.4375 C41.43172852 6.44064209 42.55095703 6.44378418 43.70410156 6.44702148 C54.16637713 6.29994655 63.80714183 4.29503269 73.86132812 1.55126953 C76.55062473 0.85806956 79.25166167 0.39069516 82 0 C83.44724635 17.63908802 83.44724635 17.63908802 80.453125 22.5234375 C78.00608265 24.21136088 75.83799665 25.10850311 73 26 C71.90558594 26.38800781 70.81117188 26.77601563 69.68359375 27.17578125 C59.89668041 30.41581741 51.27035348 31.20871215 41 31.25 C39.12248047 31.2809375 39.12248047 31.2809375 37.20703125 31.3125 C26.6446593 31.35628185 16.08915462 30.42490084 6.8125 24.9375 C5.93207031 24.43089844 5.05164063 23.92429687 4.14453125 23.40234375 C2 22 2 22 0 20 C-0.22705078 17.93701172 -0.22705078 17.93701172 -0.1953125 15.4296875 C-0.18886719 14.53378906 -0.18242187 13.63789063 -0.17578125 12.71484375 C-0.15902344 11.77769531 -0.14226562 10.84054687 -0.125 9.875 C-0.11597656 8.93011719 -0.10695312 7.98523438 -0.09765625 7.01171875 C-0.07404522 4.67422708 -0.04111516 2.33723877 0 0 Z " fill="#CEDDDF" transform="translate(215,283)"/>
<path d="M0 0 C12.02659574 2.71276596 12.02659574 2.71276596 16.8125 4.125 C35.58460923 9.27812802 58.12818176 6.89838411 76.3203125 0.8046875 C79 0 79 0 82 0 C82.13530844 3.06398451 82.2342407 6.12197126 82.3125 9.1875 C82.35439453 10.05181641 82.39628906 10.91613281 82.43945312 11.80664062 C82.52525215 16.28534996 82.51868193 18.32000978 79.7265625 21.98046875 C64.5843038 33.1961532 42.28056777 32.79821517 24.37353516 30.69091797 C15.86482498 29.29038821 7.81589744 26.40944241 1 21 C-0.17426264 18.65147472 -0.11508173 17.26225935 -0.09765625 14.6484375 C-0.09443359 13.79765625 -0.09121094 12.946875 -0.08789062 12.0703125 C-0.07951172 11.18085938 -0.07113281 10.29140625 -0.0625 9.375 C-0.05798828 8.4778125 -0.05347656 7.580625 -0.04882812 6.65625 C-0.03702591 4.43743352 -0.02056155 2.21874982 0 0 Z " fill="#CEDDDF" transform="translate(215,237)"/>
<path d="M0 0 C14.83349214 -0.4188916 31.16551162 1.51068823 43.10546875 11.15234375 C42.94140625 13.45703125 42.94140625 13.45703125 42.10546875 16.15234375 C32.73718479 22.95139934 20.48616566 25.61862831 9.10546875 26.15234375 C7.93371094 26.21679688 6.76195312 26.28125 5.5546875 26.34765625 C-7.8043745 26.74406759 -25.41397349 25.45137725 -35.89453125 16.15234375 C-36.671875 13.4609375 -36.671875 13.4609375 -36.89453125 11.15234375 C-26.85973095 2.37189349 -12.8449418 0.50246011 0 0 Z " fill="#CDDDDF" transform="translate(252.89453125,196.84765625)"/>
</svg>
